PathFileType	4	(X/Y/Z)	/Users/itak/Documents/Research/Walk-IL/dataset/trc/00456_00167.trc
DataRate	CameraRate	NumFrames	NumMarkers	Units	OrigDataRate	OrigDataStartFrame	OrigNumFrames
100.000000	100.000000	4	53	mm	100.000000	448	512
Frame#	Time	RPSI			LPSI			L3			STRN			T10			C7			CLAV			RBAK			LBAK			LSHO			LUPA			LAEL			LAOL			LWTS			LWPS			LFRA			LHPS			LHTS			RSHO			RUPA			RAEL			RAOL			RWTS			RWPS			RFRA			RIFD			RHTS			RHPS			RBHD			LFHD			RFHD			LBHD			LHIP			RHIP			RASI			LASI			LKNE			LTHI			LANK			LTIP			LTOE			LMT1			LMT5			LHEE			RKNE			RTHI			RANK			RTIP			RTOE			RMT1			RMT5			RHEE			LIFD			
		X1	Y1	Z1	X2	Y2	Z2	X3	Y3	Z3	X4	Y4	Z4	X5	Y5	Z5	X6	Y6	Z6	X7	Y7	Z7	X8	Y8	Z8	X9	Y9	Z9	X10	Y10	Z10	X11	Y11	Z11	X12	Y12	Z12	X13	Y13	Z13	X14	Y14	Z14	X15	Y15	Z15	X16	Y16	Z16	X17	Y17	Z17	X18	Y18	Z18	X19	Y19	Z19	X20	Y20	Z20	X21	Y21	Z21	X22	Y22	Z22	X23	Y23	Z23	X24	Y24	Z24	X25	Y25	Z25	X26	Y26	Z26	X27	Y27	Z27	X28	Y28	Z28	X29	Y29	Z29	X30	Y30	Z30	X31	Y31	Z31	X32	Y32	Z32	X33	Y33	Z33	X34	Y34	Z34	X35	Y35	Z35	X36	Y36	Z36	X37	Y37	Z37	X38	Y38	Z38	X39	Y39	Z39	X40	Y40	Z40	X41	Y41	Z41	X42	Y42	Z42	X43	Y43	Z43	X44	Y44	Z44	X45	Y45	Z45	X46	Y46	Z46	X47	Y47	Z47	X48	Y48	Z48	X49	Y49	Z49	X50	Y50	Z50	X51	Y51	Z51	X52	Y52	Z52	X53	Y53	Z53	

449	4.48	196.1454620361328	965.6546020507812	208.8248901367188	338.8591918945312	963.2788696289062	215.8343048095703	252.5069274902344	1049.644653320312	224.2173614501953	269.5082397460938	1260.357421875	481.0173645019531	256.4478454589844	1173.10302734375	198.6609039306641	248.2745666503906	1444.896118164062	251.2279968261719	272.9958190917969	1371.188354492188	438.4506530761719	151.561279296875	1323.18505859375	198.5542297363281	344.9488830566406	1394.48681640625	212.3018493652344	430.6953430175781	1422.144287109375	306.9697875976562	533.111328125	1311.040649414062	297.0586547851562	604.5673828125	1113.806396484375	344.4055480957031	533.6790771484375	1075.526611328125	280.7001647949219	604.1904907226562	939.5882568359375	473.1151123046875	651.98095703125	911.9131469726562	422.6790466308594	629.8509521484375	1035.724487304688	382.6881103515625	661.5810546875	839.9678955078125	456.2154235839844	628.050048828125	866.5719604492188	514.2302856445312	91.80382537841797	1419.915893554688	327.3177185058594	15.95473098754883	1360.023315429688	311.1881713867188	-56.68722915649414	1083.651733398438	309.4517211914062	-12.07717037200928	1065.099609375	263.9683227539062	-47.53369903564453	872.2789916992188	401.0319213867188	-96.56700897216797	867.494384765625	327.0019226074219	-72.89923095703125	1026.624633789062	308.7506713867188	-93.77671051025391	723.4033813476562	404.0433959960938	-80.696533203125	781.2534790039062	413.0194091796875	-113.9361572265625	785.0015258789062	342.6007690429688	165.9407043457031	1647.349243164062	339.8155212402344	337.1964721679688	1668.316040039062	453.9617309570312	207.5853271484375	1668.146850585938	469.4086303710938	340.2101440429688	1651.504150390625	302.0581970214844	449.5094604492188	859.8572387695312	357.5673217773438	52.4600944519043	860.7019653320312	315.4850769042969	109.3146362304688	901.2630615234375	425.1157531738281	366.548583984375	899.499755859375	450.8167114257812	395.1848754882812	440.5079956054688	377.3436279296875	424.378173828125	591.836181640625	395.5419921875	388.997314453125	35.16655731201172	274.7002258300781	404.2363891601562	289.0111389160156	362.4071350097656	298.1454772949219	40.27568435668945	502.8954162597656	276.4855346679688	47.75955963134766	424.9468078613281	390.8944091796875	40.05426025390625	429.4003295898438	327.2485046386719	41.21813201904297	226.0874786376953	68.03073120117188	466.3944091796875	341.0003967285156	51.0636100769043	710.0980834960938	399.1878356933594	51.35932540893555	35.65556716918945	307.9852600097656	52.4694709777832	328.2910766601562	343.8674621582031	114.1300048828125	44.47858810424805	519.2892456054688	144.2930145263672	49.94412994384766	453.933349609375	35.70449829101562	42.51453018188477	444.3580627441406	96.16587066650391	28.95881462097168	240.5268249511719	629.6546630859375	784.2625122070312	535.4407348632812	
450	4.49	195.9920501708984	965.94970703125	209.9077453613281	338.5908813476562	963.5133666992188	217.6924896240234	252.1535034179688	1049.706665039062	225.4262237548828	268.5768432617188	1260.779907226562	481.6834716796875	255.6980895996094	1173.05126953125	199.2359466552734	247.2090148925781	1444.928466796875	251.7035980224609	272.1507568359375	1371.549560546875	438.9577026367188	150.4579925537109	1323.208862304688	199.3605499267578	343.7705078125	1394.4208984375	212.8564300537109	429.76953125	1422.411987304688	307.151123046875	532.0790405273438	1311.125122070312	296.5954284667969	601.87451171875	1112.566772460938	342.0141906738281	529.6524658203125	1075.9384765625	278.9366455078125	603.7719116210938	936.1948852539062	467.1029052734375	649.5776977539062	908.4251098632812	414.8773498535156	627.4881591796875	1033.670776367188	378.2312622070312	658.87255859375	835.6605834960938	447.2420959472656	627.724365234375	862.2928466796875	506.5993041992188	90.86274719238281	1420.288818359375	328.0043640136719	14.82666206359863	1360.586547851562	312.1326293945312	-57.40486526489258	1084.0341796875	310.6992797851562	-12.72964382171631	1065.676513671875	265.1983642578125	-48.5779914855957	872.1399536132812	401.0794372558594	-97.34928894042969	867.77783203125	326.8984680175781	-73.61186218261719	1027.00537109375	309.6083984375	-95.06367492675781	723.1445922851562	402.9561157226562	-81.88826751708984	780.9218139648438	412.4366149902344	-114.8123474121094	785.1122436523438	341.8705749511719	164.9600830078125	1647.475830078125	340.2223205566406	336.3036804199219	1668.436767578125	454.2859191894531	206.6933135986328	1668.256469726562	469.8045959472656	339.1878967285156	1651.650146484375	302.3356018066406	448.6452331542969	859.9655151367188	359.7520751953125	51.86264801025391	860.9730224609375	316.1095581054688	108.2013931274414	901.6790161132812	425.8200988769531	365.3059387207031	899.538818359375	452.7063903808594	394.8122253417969	440.6161193847656	377.1407165527344	423.7253112792969	591.8550415039062	396.2927856445312	389.0386047363281	35.13185882568359	274.6831970214844	404.0691833496094	289.2216491699219	362.2141723632812	298.1793212890625	40.34217071533203	502.8218383789062	276.4399108886719	47.74119567871094	424.861083984375	390.7864685058594	40.11678695678711	429.3570251464844	327.2925720214844	41.22414398193359	226.1065521240234	67.43770599365234	466.4562683105469	341.5906372070312	50.68939208984375	710.3035278320312	399.0610656738281	51.29615783691406	35.62282562255859	308.0142822265625	52.10512542724609	328.252197265625	344.2300720214844	114.0985717773438	44.46683883666992	519.2520751953125	144.1933135986328	49.98874282836914	453.9539794921875	35.63344955444336	42.46432113647461	444.3743286132812	96.1220703125	28.9796142578125	240.5425415039062	628.5294189453125	779.7866821289062	527.0618896484375	
451	4.5	195.7517395019531	966.0169677734375	210.8951416015625	338.2381896972656	963.6591796875	219.3779144287109	251.7851867675781	1049.720947265625	226.5612182617188	267.6101379394531	1261.08740234375	482.3507690429688	255.0537567138672	1172.964111328125	199.8434143066406	246.2054138183594	1444.923461914062	252.2112884521484	271.2752990722656	1371.817260742188	439.5021667480469	149.4545440673828	1323.176025390625	200.1260223388672	342.6755676269531	1394.351928710938	213.4703674316406	428.8725891113281	1422.641967773438	307.4595336914062	531.1205444335938	1311.197509765625	296.3199157714844	599.13037109375	1111.322509765625	339.8191528320312	525.6576538085938	1076.414184570312	277.3226318359375	603.2059326171875	932.7501831054688	461.0200805664062	646.9727783203125	904.9886474609375	407.0546264648438	625.0087280273438	1031.636474609375	373.8804931640625	655.8768920898438	831.3746948242188	438.1969604492188	627.14013671875	857.9339599609375	498.8311157226562	89.93980407714844	1420.56884765625	328.6494750976562	13.73080730438232	1361.047241210938	312.9655456542969	-58.16570663452148	1084.302001953125	311.7588500976562	-13.36584186553955	1066.064819335938	266.2716979980469	-49.61283874511719	872.1285400390625	401.3976440429688	-98.08320617675781	867.9744262695312	327.0540771484375	-74.32612609863281	1027.270141601562	310.3866882324219	-96.24571228027344	723.0158081054688	402.4952087402344	-83.05076599121094	780.7571411132812	412.3496398925781	-115.6181259155273	785.1868286132812	341.6207885742188	163.9930267333984	1647.549194335938	340.5730285644531	335.3955078125	1668.560302734375	454.5820617675781	205.7729797363281	1668.35595703125	470.1491088867188	338.1800231933594	1651.7490234375	302.5946044921875	447.7968444824219	860.0515747070312	361.7832946777344	51.19318389892578	861.0895385742188	316.7783508300781	107.121208190918	901.9122924804688	426.5044860839844	364.1055908203125	899.52392578125	454.4316101074219	394.4666748046875	440.6901550292969	376.9155883789062	423.0729675292969	591.8554077148438	396.9862670898438	389.0723876953125	35.09770584106445	274.6670227050781	403.9085693359375	289.413818359375	362.0196533203125	298.2066040039062	40.40289306640625	502.7494812011719	276.390869140625	47.71997833251953	424.775146484375	390.6747436523438	40.1712646484375	429.3174438476562	327.3257141113281	41.22255706787109	226.1316528320312	66.93611907958984	466.4443664550781	342.3930053710938	50.40415191650391	710.4361572265625	399.1473388671875	51.27503967285156	35.61746215820312	308.0482482910156	51.84492111206055	328.1651916503906	344.7522583007812	114.090950012207	44.44546508789062	519.2437744140625	144.1444702148438	50.00706100463867	453.9859619140625	35.60958480834961	42.43655014038086	444.396240234375	96.12209320068359	29.01359748840332	240.5676727294922	627.2120971679688	775.2539672851562	518.527099609375	
452	4.51	195.4329376220703	965.8670043945312	211.8014831542969	337.8183288574219	963.6932983398438	220.8736724853516	251.3876190185547	1049.652099609375	227.6246185302734	266.6098937988281	1261.270629882812	483.0239868164062	254.4856414794922	1172.840942382812	200.5431060791016	245.2695770263672	1444.875	252.7521209716797	270.3712768554688	1371.978515625	440.0845947265625	148.5484619140625	1323.07470703125	200.8432464599609	341.6644592285156	1394.273681640625	214.1430511474609	428.0137939453125	1422.80419921875	307.9054870605469	530.2196044921875	1311.207153320312	296.2450866699219	596.354248046875	1110.048583984375	337.8476867675781	521.7359619140625	1076.908813476562	275.8629455566406	602.4677124023438	929.2537231445312	454.920654296875	644.1787719726562	901.6155395507812	399.2827453613281	622.4295043945312	1029.606201171875	369.6829833984375	652.6171264648438	827.1373901367188	429.1463317871094	626.2819213867188	853.5090942382812	490.983154296875	89.0313720703125	1420.728271484375	329.2584228515625	12.67233753204346	1361.360961914062	313.6921691894531	-58.97154998779297	1084.42626953125	312.6456909179688	-14.01728343963623	1066.238647460938	267.1971740722656	-50.63406753540039	872.1911010742188	402.0175476074219	-98.77816009521484	868.0499877929688	327.4952697753906	-75.05387115478516	1027.39013671875	311.116943359375	-97.32503509521484	722.98095703125	402.7058410644531	-84.14689636230469	780.7117309570312	412.7657165527344	-116.3529815673828	785.19384765625	341.87841796875	163.0405578613281	1647.56103515625	340.8744506835938	334.4755249023438	1668.685913085938	454.8497619628906	204.8299560546875	1668.443725585938	470.4458312988281	337.1932983398438	1651.791137695312	302.8455505371094	446.9716186523438	860.1074829101562	363.6382446289062	50.46642684936523	861.0557250976562	317.4790954589844	106.0734710693359	901.9708862304688	427.1823120117188	362.9498901367188	899.449462890625	455.9889526367188	394.1368713378906	440.7233276367188	376.6693115234375	422.4349670410156	591.8313598632812	397.6094360351562	389.0986633300781	35.06668853759766	274.6517639160156	403.7557067871094	289.5822448730469	361.8225402832031	298.2268981933594	40.45727157592773	502.6788330078125	276.33837890625	47.6956787109375	424.6908264160156	390.5621337890625	40.21789932250977	429.2820434570312	327.3453979492188	41.21242141723633	226.1606292724609	66.51239776611328	466.3739318847656	343.3393859863281	50.19616317749023	710.5110473632812	399.3777465820312	51.28824615478516	35.63601303100586	308.0850830078125	51.6628532409668	328.0379943847656	345.3883056640625	114.1039886474609	44.41584014892578	519.25927734375	144.1398773193359	50.00307464599609	454.0266418457031	35.62416458129883	42.42987823486328	444.4236450195312	96.15818023681641	29.05821800231934	240.6002044677734	625.6669921875	770.6663818359375	509.8644104003906	
